<svg xmlns="http://www.w3.org/2000/svg" viewBox="0 0 171.46 257.02"><defs><style>.cls-1{fill:#643eaf;}.cls-2{fill:#6bd111;}.cls-3{fill:#ffb715;}.cls-4{fill:#fff;}</style></defs><g id="Camada_2" data-name="Camada 2"><g id="Camada_2-2" data-name="Camada 2"><g id="Base"><path class="cls-1" d="M170.09,70.64a84.39,84.39,0,0,0-29.16-50.33A84.09,84.09,0,0,0,86.53,0a89.14,89.14,0,0,0-22,2.7A84.24,84.24,0,0,0,20.29,30.5C4.77,49-1.68,70.38.37,94.37a117.09,117.09,0,0,0,7,30.16A194,194,0,0,0,27.14,163.4a299.49,299.49,0,0,0,24.74,32.87A317.93,317.93,0,0,0,79.36,224.7c4.11,3.73,8.91,3.61,13-.24a338.19,338.19,0,0,0,23.38-24.82c13.55-15.74,25.88-32.35,36.08-50.49C159,136.34,165,123,168.54,108.68,171.62,96.11,172.47,83.42,170.09,70.64Z"/><path class="cls-2" d="M145.53,228c6.31,4.49,6.07,7.81-.88,11.38-6.73,3.46-14.1,4.88-21.45,6a253.34,253.34,0,0,1-66.19,1c-9.89-1.09-19.77-2.5-28.87-6.9C21,236,20.64,233.81,26,228.18c-1.08-1.15-2.51-.59-3.79-.76a29.54,29.54,0,0,0-14.33,6.22c-4,3.11-3.58,7.32.68,10.22a40.15,40.15,0,0,0,12,5.57,202.18,202.18,0,0,0,37.21,6.26c29.15,2.45,58.12,1.77,86.78-4.38C152,249.7,159.71,248,165.45,242c1.79-1.87,2.32-3.69,1.14-5.78C163.61,230.82,152,226.4,145.53,228Z"/><path class="cls-3" d="M47.64,225.67c.8-.53,1.91-.61,2.12-1.81-3.86-.26-11.71,2.34-14.16,4.77-1.8,1.78-2.15,3.45.18,5.3,3.75,3,8.12,4.46,12.65,5.44a183,183,0,0,0,66.36,1.83c7.09-1,14.43-2,20.5-6.7,2.7-2.11,2.74-3.85.5-6.05-2.5-2.46-8.38-4.51-12.34-4.34,4.36,4.52,4,6.2-2,8.65a31.74,31.74,0,0,1-5.19,1.68c-16.54,3.75-33.24,3.88-50,1.87-6.23-.75-12.52-1.75-18.16-4.82C45.16,229.89,44.35,227.83,47.64,225.67Z"/></g><g id="MG"><path class="cls-4" d="M89.63,29.88l-.3,127.58a1.3,1.3,0,0,0,2.32.8l40.76-52.09a1.35,1.35,0,0,0,.27-.8V83.3a1.3,1.3,0,0,0-1.27-1.3l-22.48-.38a1.29,1.29,0,0,0-1.31,1.3v12a1.29,1.29,0,0,0,1.29,1.29h8a1.3,1.3,0,0,1,1.29,1.3v2.58a1.28,1.28,0,0,1-.29.82l-11.51,14.2c-1,1.25-3,.54-2.62-.9l-.27-61.56a1.4,1.4,0,0,1,2-1.75l11.35,4.95a1.28,1.28,0,0,1,.77,1.14l.56,15.87a1.29,1.29,0,0,0,1.29,1.25h11.95a1.29,1.29,0,0,0,1.29-1.29V48.48a1.29,1.29,0,0,0-.75-1.17L91.47,28.7A1.3,1.3,0,0,0,89.63,29.88Z"/><path class="cls-4" d="M39.62,49v56.84a1.3,1.3,0,0,0,.28.8l12,15.23a1.3,1.3,0,0,0,2.31-.81V77.33a1.29,1.29,0,0,1,2.19-.93l4,3.8a1.29,1.29,0,0,0,1.8,0l4.09-4a1.3,1.3,0,0,1,2.21.92v65.3a1.28,1.28,0,0,0,.28.8l12,15.15a1.3,1.3,0,0,0,2.31-.8L83.4,29.16a1.3,1.3,0,0,0-1.3-1.3H75.29a1.28,1.28,0,0,0-1.2.82l-12,30.16a1.3,1.3,0,0,1-2.12.44L48.67,48a1.3,1.3,0,0,0-.91-.38H40.91A1.3,1.3,0,0,0,39.62,49Z"/></g></g></g></svg>